<?xml version="1.0" encoding="utf-8"?>
<!-- Generator: Adobe Illustrator 17.0.0, SVG Export Plug-In . SVG Version: 6.00 Build 0)  -->
<!DOCTYPE svg PUBLIC "-//W3C//DTD SVG 1.1//EN" "http://www.w3.org/Graphics/SVG/1.1/DTD/svg11.dtd">
<svg version="1.1" id="Layer_1" xmlns="http://www.w3.org/2000/svg" xmlns:xlink="http://www.w3.org/1999/xlink" x="0px" y="0px"
	 width="714.286px" height="816.326px" viewBox="142.857 91.837 714.286 816.326"
	 enable-background="new 142.857 91.837 714.286 816.326" xml:space="preserve">
<path fill="#FFFFFF" d="M426.122,434.286c-23.265,0-41.633,20.408-41.633,45.306s18.776,45.306,41.633,45.306
	c23.265,0,41.633-20.408,41.633-45.306C468.163,454.694,449.388,434.286,426.122,434.286z M575.102,434.286
	c-23.265,0-41.633,20.408-41.633,45.306s18.776,45.306,41.633,45.306c23.265,0,41.633-20.408,41.633-45.306
	S598.367,434.286,575.102,434.286z"/>
<path fill="#FFFFFF" d="M773.469,91.837H226.531c-46.122,0-83.673,37.551-83.673,84.082v551.837
	c0,46.531,37.551,84.082,83.673,84.082h462.857l-21.633-75.51L720,784.898l49.388,45.714l87.755,77.551V175.918
	C857.143,129.388,819.592,91.837,773.469,91.837z M615.918,624.898c0,0-14.694-17.551-26.939-33.061
	c53.469-15.102,73.878-48.571,73.878-48.571c-16.735,11.02-32.653,18.776-46.939,24.082c-20.408,8.571-40,14.286-59.184,17.551
	c-39.184,7.347-75.102,5.306-105.714-0.408c-23.265-4.49-43.265-11.02-60-17.551c-9.388-3.673-19.592-8.163-29.796-13.878
	c-1.224-0.816-2.449-1.224-3.673-2.041c-0.816-0.408-1.225-0.816-1.633-1.225c-7.347-4.082-11.429-6.939-11.429-6.939
	s19.592,32.653,71.429,48.163c-12.245,15.51-27.347,33.878-27.347,33.878c-90.204-2.857-124.49-62.041-124.49-62.041
	c0-131.429,58.776-237.959,58.776-237.959c58.776-44.082,114.694-42.857,114.694-42.857l4.082,4.898
	c-73.469,21.224-107.347,53.469-107.347,53.469s8.98-4.898,24.082-11.837c43.673-19.184,78.367-24.49,92.653-25.714
	c2.449-0.408,4.49-0.816,6.939-0.816c24.898-3.265,53.061-4.082,82.449-0.816c38.776,4.49,80.408,15.918,122.857,39.184
	c0,0-32.245-30.612-101.633-51.837l5.714-6.531c0,0,55.918-1.225,114.694,42.857c0,0,58.776,106.531,58.776,237.959
	C740.816,562.857,706.122,622.041,615.918,624.898z"/>
</svg>
