<?xml version="1.0" encoding="utf-8"?>
<!-- Generator: Adobe Illustrator 17.0.0, SVG Export Plug-In . SVG Version: 6.00 Build 0)  -->
<!DOCTYPE svg PUBLIC "-//W3C//DTD SVG 1.1//EN" "http://www.w3.org/Graphics/SVG/1.1/DTD/svg11.dtd">
<svg version="1.1" id="Layer_1" xmlns="http://www.w3.org/2000/svg" xmlns:xlink="http://www.w3.org/1999/xlink" x="0px" y="0px"
	 width="1920px" height="1080px" viewBox="0 0 1920 1080" enable-background="new 0 0 1920 1080" xml:space="preserve">
<g>
	<path fill="#BB7726" d="M801.022,874.246l-2.889-4.024c6.099-0.892,9.555-5.011,9.555-10.397c0-6.968-5.621-10.867-13.431-10.867
		h-24.415v0.438c1.902,1.566,1.902,4.948,1.902,6.937v17.912c0,2.035,0.055,8.973-1.902,10.538v0.422h10.847v-0.422
		c-1.805-1.566-1.687-8.503-1.687-10.538v-19.338h15.142c3.664,0,6.365,1.769,6.365,4.713c0,3.038-2.701,4.87-6.365,4.87h-5.32
		c-1.139,0-2.435-0.094-3.308-0.689h-0.419l-3.629,6.42h7.602l6.933,9.896c1.405,2.145,4.087,5.605,9.672,5.605
		c1.405,0,2.698-0.204,4.291-0.517v-0.422C806.663,882.498,802.521,876.282,801.022,874.246z"/>
	<path fill="#BB7726" d="M788.253,827.93c-22.399,0-39.725,17.255-39.725,39.38c0,22.125,17.326,39.411,39.725,39.411
		c22.438,0,39.729-17.286,39.729-39.411C827.982,845.185,810.691,827.93,788.253,827.93z M788.253,899.754
		c-16.966,0-30.303-14.969-30.303-32.444c0-17.506,13.337-32.444,30.303-32.444c17.005,0,30.303,14.938,30.303,32.444
		C818.555,884.784,805.258,899.754,788.253,899.754z"/>
	<path fill="#BB7726" d="M751.472,613.272h66.99c14.687,0,21.565-10.851,18.049-25.116c-7.202-29.155-10.565-71.182-10.565-127.849
		v-57.903c0-14.641,11.892-26.525,26.486-26.525h92.524c15.294,0,56.31,0.924,89.408,9.786c14.175,3.758,30.663-0.987,37.96-13.78
		l20.328-35.544c7.239-12.73,1.386-23.049-13.336-23.049H852.432c-14.594,0-26.486-11.916-26.486-26.571V178.71
		c0-14.703,11.892-26.603,26.486-26.603h157.631c39.349,0,102.024,2.583,151.782,16.55c14.061,3.931,21.718-2.771,17.725-16.911
		l-10.487-36.718c-4.083-14.046-19.283-25.508-33.931-25.508H753.448c-14.629,0-20.18,10.225-15.979,24.271
		c7.696,25.257,7.696,53.019,7.696,72.763v273.752c0,56.667-3.727,98.85-11.266,127.959
		C730.231,602.514,736.843,613.272,751.472,613.272z"/>
	<path fill="#BB7726" d="M1362.916,908.147c-71.269,14.452-166.416,18.758-221.039,18.758h-100.941
		c-14.648,0-26.54-11.963-26.54-26.572V790.365c0-14.671,11.892-26.556,26.54-26.556h160.786c14.782,0,32.526-10.319,39.768-23.002
		l24.031-41.478c7.352-12.684,1.825-19.98-12.651-17.099c-75.672,14.937-177.658,18.038-225.024,18.68c0,0-3.002,0.047-6.725,0.079
		c-3.723,0.063-6.725-11.743-6.725-26.494v-119.55c0-14.703,11.892-26.572,26.54-26.572h143.253
		c39.858,0,102.706,2.552,151.786,16.238c14.053,3.945,21.765-2.835,17.78-16.911l-10.491-36.39
		c-4.079-14.14-19.189-25.538-33.869-25.538H942.939c-14.742,0-20.442,10.365-16.547,24.489c7.278,25.162,7.278,52.94,7.278,72.575
		v111.705c0,14.703-11.932,26.588-26.521,26.588H659.214c-14.629,0-26.521-11.884-26.521-26.588V337.124
		c0-19.761,0-47.695,8.017-73.045c4.388-13.952-0.877-24.082-15.56-24.082h-63.992c-14.722,0-20.461,10.396-16.335,24.552
		c7.144,25.209,7.144,52.893,7.144,72.575v273.611c0,56.714-3.421,98.834-10.659,127.974c-3.461,14.28,3.362,25.1,17.991,25.1
		h347.85c14.589,0,26.521,11.885,26.521,26.556v46.114c0,56.682-3.402,98.819-10.601,127.958
		c-3.515,14.233,3.323,25.084,18.05,25.084h370.703c14.687,0,32.413-10.287,39.858-23.033l23.847-41.306
		C1382.825,912.484,1377.328,905.234,1362.916,908.147z"/>
</g>
</svg>
