<?xml version="1.0" encoding="UTF-8" standalone="no"?>
<!DOCTYPE svg PUBLIC "-//W3C//DTD SVG 1.1//EN" "http://www.w3.org/Graphics/SVG/1.1/DTD/svg11.dtd">
<svg width="100%" height="100%" viewBox="0 0 1513 725" version="1.1" xmlns="http://www.w3.org/2000/svg" xmlns:xlink="http://www.w3.org/1999/xlink" xml:space="preserve" xmlns:serif="http://www.serif.com/" style="fill-rule:evenodd;clip-rule:evenodd;stroke-linejoin:round;stroke-miterlimit:1.41421;">
    <g transform="matrix(1,0,0,1,-274,-1191)">
        <g>
            <g transform="matrix(2.27233,0,0,2.27233,-797.211,1186.25)">
                <path d="M481.412,320.799C485.623,312.771 490.144,304.891 494.971,297.175C496.175,295.237 495.925,292.404 494.371,290.729L472.304,266.683C471.675,266 471.612,265.1 471.742,264.883L472.896,263.075C493.271,231.058 518.454,202.492 547.721,178.187L549.862,176.408C550.112,176.204 550.379,176.154 550.558,176.154C550.879,176.154 551.183,176.304 551.396,176.554L620.963,260.329C621.342,260.796 621.287,261.483 620.825,261.871L618.688,263.637C613.683,267.8 608.746,272.267 603.604,277.287C602.75,278.129 602.271,279.254 602.271,280.442C602.262,281.638 602.733,282.763 603.579,283.617L621.15,301.192C624.508,304.538 627.542,307.558 627.542,308.029C627.542,308.312 627.433,308.588 627.221,308.8L625.258,310.767C621.987,314.038 618.816,317.383 615.747,320.799L605.461,320.799C608.226,317.554 611.077,314.369 614.013,311.246C615.675,309.467 615.633,306.625 613.925,304.908L552.642,243.629C551.804,242.787 550.7,242.325 549.517,242.325C548.304,242.325 547.171,242.808 546.325,243.696C524.01,267.058 505.214,292.992 490.218,320.799L481.412,320.799ZM992.814,320.799C989.745,317.383 986.575,314.038 983.304,310.767L981.329,308.8C980.908,308.375 980.908,307.688 981.329,307.258L1005.08,283.504C1005.94,282.646 1006.41,281.521 1006.4,280.325C1006.4,279.133 1005.92,278.017 1005.07,277.175C999.933,272.175 995.046,267.746 990.108,263.646L987.962,261.867C987.742,261.679 987.6,261.417 987.571,261.125C987.546,260.837 987.633,260.554 987.817,260.329L1057.4,176.554C1057.61,176.304 1057.91,176.154 1058.24,176.154C1058.41,176.154 1058.68,176.204 1058.93,176.408C1060.1,177.396 1061.08,178.196 1061.08,178.196C1090.34,202.5 1115.52,231.067 1135.89,263.075L1137.04,264.883C1137.18,265.096 1137.11,266.004 1136.49,266.679L1114.27,290.879C1112.74,292.558 1112.48,295.383 1113.69,297.321C1118.48,304.99 1122.97,312.822 1127.15,320.799L1118.33,320.799C1103.33,292.991 1084.54,267.058 1062.22,243.696C1061.39,242.808 1060.26,242.325 1059.05,242.325C1057.86,242.325 1056.75,242.787 1055.92,243.629L994.629,304.908C992.917,306.621 992.871,309.462 994.542,311.242C997.479,314.366 1000.33,317.553 1003.1,320.799L992.814,320.799ZM1124.99,265.721C1125.1,266.887 1124.69,268.079 1123.87,268.975L1110.45,283.6C1109.66,284.458 1108.62,284.925 1107.55,284.925C1106.29,284.925 1105.13,284.288 1104.36,283.175C1094.43,268.821 1083.35,255.029 1071.42,242.179C1070.16,240.825 1070.23,239.733 1070.53,239.063C1070.89,238.246 1071.73,237.75 1072.76,237.75C1073.06,237.75 1073.39,237.779 1073.73,237.863C1074.61,238.05 1075.5,238.258 1076.39,238.483C1086.07,240.946 1096.69,245.629 1107.94,252.412C1114.46,256.354 1119.9,260.2 1123.3,262.75C1124.28,263.463 1124.89,264.55 1124.99,265.721ZM484.917,268.975C484.092,268.075 483.692,266.887 483.796,265.712C483.912,264.529 484.521,263.479 485.5,262.75C490.55,258.996 495.775,255.488 501.029,252.338C512.2,245.621 522.738,240.971 532.338,238.512C533.187,238.292 534.033,238.092 534.888,237.9C535.213,237.825 535.525,237.792 535.813,237.792C536.829,237.792 537.646,238.279 538.004,239.092C538.3,239.762 538.371,240.85 537.104,242.225C525.225,255.017 514.192,268.746 504.3,283.029C503.525,284.142 502.363,284.787 501.104,284.787C500.025,284.787 499.004,284.308 498.212,283.454L484.917,268.975ZM499.071,239.433C513.15,221.367 529.033,204.587 546.283,189.583C547.083,188.871 548.117,188.487 549.175,188.487C550.488,188.487 551.729,189.079 552.579,190.092L607.937,256.763C609.479,258.633 609.267,261.463 607.446,263.075C604.475,265.721 601.417,268.592 598.1,271.842C597.246,272.667 596.133,273.121 594.95,273.121C593.754,273.121 592.629,272.662 591.779,271.808L550.725,230.758C550.358,230.387 550.042,230.071 549.779,229.783C549.267,229.237 548.483,228.758 547.983,228.75C547.679,228.746 547.383,228.746 547.083,228.746C533.879,228.746 518.688,233.467 501.95,242.779C501.196,243.192 500.629,243.375 500.1,243.375C499.342,243.375 498.675,242.975 498.363,242.321C497.767,241.104 498.713,239.892 499.071,239.433ZM1001.34,263.075C999.529,261.463 999.304,258.633 1000.85,256.763L1056.21,190.096C1057.06,189.079 1058.3,188.487 1059.61,188.487C1060.67,188.487 1061.69,188.871 1062.5,189.583C1079.76,204.596 1095.67,221.392 1109.76,239.492C1110.12,239.946 1111.07,241.162 1110.46,242.379C1110.15,243.033 1109.49,243.433 1108.73,243.433C1108.2,243.433 1107.63,243.246 1106.89,242.833C1090.08,233.479 1074.85,228.738 1061.65,228.738C1061.34,228.738 1061.02,228.738 1060.71,228.746C1060.18,228.75 1059.39,229.179 1058.92,229.663C1058.67,229.917 1058.39,230.204 1058.06,230.529L1016.89,271.696C1016.05,272.546 1014.92,273.012 1013.72,273.012C1012.53,273.012 1011.42,272.554 1010.57,271.729C1007.28,268.496 1004.26,265.667 1001.34,263.075Z" style="fill:rgb(229,235,239);"/>
            </g>
            <g transform="matrix(2.27233,0,0,2.27233,-797.211,1186.25)">
                <path d="M675.225,320.799C711.021,293.84 754.842,279.008 801.133,279.008C846.824,279.008 890.058,293.441 926.464,320.799L913.083,320.799C900.061,312.071 886.048,304.894 871.275,299.4C870.775,299.213 870.275,299.113 869.833,299.113C868.921,299.113 868.146,299.521 867.704,300.229C867.342,300.808 867.067,301.804 867.787,303.275L876.435,320.799L867.796,320.799L856.117,297.129C855.225,295.3 853.067,293.533 851.112,293.033C834.879,288.887 818.104,286.779 801.254,286.779C789.496,286.779 777.65,287.812 766.037,289.854C764.063,290.2 761.758,291.737 760.658,293.429L742.911,320.799L733.679,320.799L747.933,298.821C748.908,297.308 748.596,296.229 748.317,295.721C747.896,294.95 747.087,294.508 746.096,294.508C745.729,294.508 745.308,294.571 744.883,294.696C724.653,300.53 705.752,309.334 688.641,320.799L675.225,320.799Z" style="fill:rgb(229,235,239);"/>
            </g>
            <g transform="matrix(9.46803,0,0,9.46803,-797.211,1186.25)">
                <path d="M192.552,20.104C192.771,20.322 193.123,20.322 193.343,20.104L195.04,18.404C195.258,18.187 195.258,17.833 195.04,17.616L193.343,15.916C193.123,15.698 192.771,15.698 192.552,15.916L190.853,17.616C190.636,17.833 190.636,18.187 190.853,18.404L192.552,20.104Z" style="fill:rgb(229,235,239);fill-rule:nonzero;"/>
            </g>
            <g transform="matrix(9.46803,0,0,9.46803,-797.211,1186.25)">
                <path d="M192.552,32.257C192.771,32.476 193.123,32.476 193.343,32.257L195.04,30.559C195.258,30.34 195.258,29.987 195.04,29.77L193.343,28.07C193.123,27.852 192.771,27.852 192.552,28.07L190.853,29.77C190.636,29.987 190.636,30.34 190.853,30.559L192.552,32.257Z" style="fill:rgb(229,235,239);fill-rule:nonzero;"/>
            </g>
            <g transform="matrix(9.46803,0,0,9.46803,-797.211,1186.25)">
                <path d="M140.467,31.162C140.563,30.906 140.804,30.734 141.13,30.689C141.789,30.596 142.473,30.509 143.058,30.434L143.136,30.424C144.709,30.22 145.99,30.05 146.928,29.88C147.013,29.864 147.103,29.857 147.197,29.857C147.648,29.857 148.129,30.031 148.421,30.302L156.416,37.684C156.799,38.036 157.028,38.649 157.055,39.076C157.159,40.635 157.99,45.905 164.311,48.28C164.311,48.28 164.367,48.301 164.435,48.327C164.504,48.353 164.582,48.379 164.606,48.381C164.619,48.383 164.635,48.384 164.652,48.384C164.712,48.384 164.75,48.374 164.761,48.369L165.008,48.263C165.102,48.222 174.656,44.119 182.041,43.264L182.24,43.241C182.275,43.236 182.354,43.201 182.379,43.181L182.534,43.05C182.719,42.893 187.068,39.178 187.287,34.783C187.368,33.224 186.921,31.778 185.965,30.484C185.725,30.162 185.462,29.558 185.438,29.072L184.867,16.223C184.848,15.765 185.033,15.135 185.297,14.758L192.312,4.749C192.489,4.496 192.75,4.349 193.026,4.349C193.303,4.349 193.567,4.496 193.741,4.749L200.758,14.758C201.021,15.134 201.204,15.765 201.184,16.224L200.615,29.072C200.594,29.555 200.329,30.16 200.089,30.484C199.132,31.779 198.686,33.225 198.765,34.784C198.985,39.178 203.335,42.893 203.522,43.05L203.676,43.181C203.702,43.203 203.779,43.236 203.812,43.241L204.011,43.264C211.412,44.122 220.955,48.222 221.045,48.263L221.297,48.37C221.303,48.374 221.344,48.384 221.401,48.384C221.469,48.379 221.547,48.353 221.616,48.328L221.744,48.28C228.064,45.906 228.894,40.635 228.997,39.076C229.03,38.589 229.305,37.992 229.636,37.686L237.632,30.302C237.926,30.031 238.407,29.857 238.856,29.857C238.95,29.857 239.04,29.864 239.125,29.88C240.067,30.051 241.345,30.22 242.918,30.424L242.972,30.43C243.564,30.506 244.258,30.596 244.927,30.688C245.248,30.733 245.49,30.906 245.586,31.16C245.687,31.416 245.622,31.705 245.409,31.957L242.409,35.515C242.21,35.751 241.799,35.941 241.491,35.941L239.551,35.942C239.243,35.942 238.995,36.192 238.995,36.5L238.993,38.904C238.993,39.024 239.011,39.116 239.044,39.175C239.119,39.31 239.397,39.074 239.327,39.165C239.299,39.203 239.254,39.258 239.195,39.328L234.992,44.314C234.792,44.549 234.382,44.741 234.074,44.741L232.365,44.741C232.058,44.741 231.808,44.99 231.808,45.298L231.805,47.534C231.805,47.842 231.645,48.282 231.449,48.519L223.304,58.181C223.084,58.442 222.735,58.599 222.375,58.599C222.164,58.599 221.961,58.546 221.786,58.446C213.592,53.753 204.159,51.176 194.504,50.989L194.188,50.983C193.915,50.975 193.64,50.969 193.364,50.969L193.034,50.975L192.679,50.975C192.555,50.975 192.404,50.975 192.24,50.979C191.897,50.983 191.549,50.989 191.549,50.989C181.897,51.176 172.464,53.753 164.267,58.445C164.092,58.546 163.889,58.599 163.677,58.599C163.317,58.599 162.969,58.442 162.748,58.181L154.496,48.389C154.296,48.154 154.136,47.713 154.136,47.404L154.136,45.298C154.136,44.99 153.886,44.741 153.577,44.741L151.979,44.741C151.671,44.741 151.26,44.549 151.061,44.314L147.31,39.865C147.11,39.628 146.949,39.188 146.949,38.879L146.949,36.5C146.949,36.192 146.7,35.942 146.392,35.942L144.561,35.941C144.252,35.941 143.843,35.751 143.644,35.515L140.646,31.959C140.434,31.708 140.369,31.418 140.467,31.162ZM162.803,61.128C162.879,61.219 162.995,61.276 163.104,61.276C163.144,61.276 163.177,61.268 163.2,61.253L163.69,60.951C171.373,56.211 180.313,53.433 189.543,52.923C189.906,52.903 190.487,52.888 190.887,52.879L191.595,52.858C192.072,52.843 192.553,52.837 193.03,52.834L193.359,52.828C193.623,52.828 193.884,52.834 194.146,52.84L194.468,52.848C204.438,53.039 214.084,55.842 222.365,60.951L222.853,61.253C222.878,61.268 222.912,61.276 222.95,61.276C223.057,61.276 223.176,61.219 223.251,61.128L249.326,30.192C249.36,30.151 249.377,30.112 249.368,30.08C249.363,30.048 249.336,30.015 249.286,29.991L248.412,29.53C247.793,29.204 246.335,28.991 243.136,28.576C240.86,28.283 238.939,28.022 238.427,27.807C238.427,27.807 238.332,27.768 238.218,27.717C238.1,27.667 237.895,27.633 237.775,27.691C237.706,27.723 237.636,27.769 237.573,27.825L227.429,37.194C227.429,37.194 227.319,37.298 227.184,37.422C227.141,37.462 227.094,37.588 227.099,37.647L227.132,37.978C227.154,38.197 227.589,43.376 222.215,46.051C221.997,46.159 221.705,46.22 221.397,46.22C221.128,46.22 220.865,46.173 220.659,46.09C218.026,45.026 211.261,42.455 205.301,41.561C204.83,41.49 204.243,41.198 203.934,40.883C202.751,39.666 200.747,37.244 200.62,34.683C200.553,33.283 201.057,32.05 202.16,30.912C202.16,30.912 202.194,30.878 202.236,30.835C202.277,30.795 202.364,30.628 202.392,30.458C202.409,30.365 202.424,30.258 202.428,30.146L203.082,15.398C203.094,15.123 202.96,14.664 202.802,14.437L193.077,0.562C193.064,0.548 193.053,0.538 193.043,0.531C193.021,0.518 192.47,1.286 191.817,2.218C189.221,5.92 183.252,14.437 183.252,14.437C183.094,14.664 182.959,15.123 182.972,15.398L183.625,30.146C183.631,30.252 183.641,30.353 183.655,30.441C183.68,30.603 183.757,30.772 183.805,30.822L183.895,30.912C184.995,32.05 185.5,33.283 185.431,34.683C185.307,37.244 183.303,39.666 182.118,40.881C181.81,41.198 181.224,41.491 180.752,41.561C174.796,42.454 168.029,45.026 165.394,46.09C165.187,46.173 164.925,46.22 164.656,46.22C164.348,46.22 164.055,46.159 163.839,46.051C158.466,43.378 158.901,38.204 158.923,37.98C158.923,37.98 158.93,37.911 158.941,37.827C158.949,37.742 158.916,37.549 158.824,37.418C158.774,37.349 158.709,37.273 158.632,37.201L148.646,27.981L148.316,27.694C148.28,27.661 148.193,27.631 148.102,27.631C148.05,27.631 148.023,27.638 148.014,27.642L147.618,27.81C147.115,28.022 145.191,28.284 142.9,28.578C139.719,28.991 138.261,29.204 137.643,29.53L136.766,29.991C136.719,30.015 136.69,30.048 136.683,30.08C136.677,30.112 136.693,30.151 136.727,30.192L162.803,61.128Z" style="fill:rgb(229,235,239);fill-rule:nonzero;"/>
            </g>
            <g transform="matrix(9.46803,0,0,9.46803,-797.211,1186.25)">
                <path d="M192.552,45.291C192.771,45.508 193.123,45.508 193.343,45.291L195.04,43.59C195.258,43.373 195.258,43.02 195.04,42.801L193.343,41.103C193.123,40.884 192.771,40.884 192.552,41.103L190.853,42.801C190.636,43.02 190.636,43.373 190.853,43.59L192.552,45.291Z" style="fill:rgb(229,235,239);fill-rule:nonzero;"/>
            </g>
            <g transform="matrix(9.46803,0,0,9.46803,-797.211,1186.25)">
                <path d="M170.372,35.251C170.591,35.468 170.945,35.468 171.161,35.251L172.862,33.551C173.079,33.333 173.079,32.98 172.862,32.762L171.161,31.063C170.945,30.844 170.591,30.844 170.372,31.063L168.674,32.762C168.455,32.98 168.455,33.333 168.674,33.551L170.372,35.251Z" style="fill:rgb(229,235,239);fill-rule:nonzero;"/>
            </g>
            <g transform="matrix(9.46803,0,0,9.46803,-797.211,1186.25)">
                <path d="M215.689,35.251C215.909,35.468 216.262,35.468 216.481,35.251L218.179,33.551C218.396,33.333 218.396,32.98 218.179,32.762L216.481,31.063C216.262,30.844 215.909,30.844 215.689,31.063L213.992,32.762C213.775,32.98 213.775,33.333 213.992,33.551L215.689,35.251Z" style="fill:rgb(229,235,239);fill-rule:nonzero;"/>
            </g>
        </g>
    </g>
</svg>
